<svg height="48pt" viewBox="0 0 48 48" width="48pt" xmlns="http://www.w3.org/2000/svg" xmlns:xlink="http://www.w3.org/1999/xlink"><linearGradient id="a" gradientUnits="userSpaceOnUse" x1="7.725507626" x2="46.998507626" y1="24.0005" y2="24.0005"><stop offset="0" stop-color="#d300dc"/><stop offset="1" stop-color="#8700ff"/></linearGradient><linearGradient id="b" gradientTransform="matrix(23.5 0 0 42.204 1 2.796)" gradientUnits="userSpaceOnUse" x1="0" x2="1" y1=".5" y2=".5"><stop offset="0" stop-color="#f7f206"/><stop offset=".97826086957" stop-color="#ffbb24"/></linearGradient><g fill-rule="evenodd"><path d="m43.055 27.727h1.427c1.104 0 1.966.427 1.925.952 0 0-.191.951-.525 1.876-1.364 3.827-3.873 7.136-7.182 9.481-3.318 2.337-7.282 3.6-11.336 3.6-5.164 0-10.128-2.036-13.8-5.663-3.673-3.637-5.773-8.573-5.837-13.737 0-1.083.896-1.963 2-1.963h.909 32.636c-.39-3.61-2.005-7.005-4.599-9.591-3-3-7.073-4.682-11.309-4.682-3.3 0-6.528 1.018-9.219 2.918-2.161 1.528-3.902 3.557-5.08 5.9h24.844c1.004 0 1.818.815 1.818 1.818 0 1.004-.814 1.819-1.818 1.819h-26.227-1.682c-1.104 0-1.963-.415-1.918-.927 0 0 .308-.998.782-2.128 1.363-3.809 3.872-7.118 7.181-9.445 3.31-2.337 7.264-3.591 11.319-3.591 5.209 0 10.2 2.072 13.881 5.745 3.682 3.682 5.755 8.682 5.755 13.891v.036l-.009.664.009 1.209h-1.833-33.689c.433 3.575 2.059 6.923 4.64 9.473 2.991 2.954 7.037 4.618 11.246 4.618 3.309 0 6.536-1.027 9.236-2.936 2.096-1.482 3.797-3.44 4.968-5.7h-24.568c-1.003 0-1.818-.815-1.818-1.819 0-1.003.815-1.818 1.818-1.818z" fill="url(#a)"/><path d="m24.5 2.948c-.784-.106-1.586-.152-2.398-.152-11.646 0-21.102 9.455-21.102 21.102 0 11.646 9.456 21.102 21.102 21.102.812 0 1.614-.046 2.398-.152-10.522-1.178-18.704-10.116-18.704-20.95s8.182-19.772 18.704-20.95z" fill="url(#b)"/></g></svg>